<?xml version="1.0" standalone="no"?>
<!DOCTYPE svg PUBLIC "-//W3C//DTD SVG 20010904//EN"
 "http://www.w3.org/TR/2001/REC-SVG-20010904/DTD/svg10.dtd">
<svg version="1.0" xmlns="http://www.w3.org/2000/svg"
 width="215.000000pt" height="215.000000pt" viewBox="0 0 215.000000 215.000000"
 preserveAspectRatio="xMidYMid meet">
<metadata>
Created by potrace 1.11, written by Peter Selinger 2001-2013
</metadata>
<g transform="translate(0.000000,215.000000) scale(0.100000,-0.100000)"
fill="#000000" stroke="none">
<path d="M100 2115 c0 -24 -5 -35 -15 -35 -13 0 -15 -38 -15 -285 0 -278 0
-285 -20 -285 -20 0 -20 7 -20 285 0 247 -2 285 -15 285 -13 0 -15 -121 -15
-1025 0 -904 2 -1025 15 -1025 8 0 15 -7 15 -15 0 -13 123 -15 1045 -15 922 0
1045 2 1045 15 0 8 7 15 15 15 8 0 15 9 15 20 0 11 -7 20 -15 20 -8 0 -15 -9
-15 -20 0 -16 -7 -20 -35 -20 -28 0 -35 4 -35 20 0 11 7 20 15 20 10 0 15 10
15 30 0 23 4 30 20 30 19 0 20 7 20 235 0 202 2 235 15 235 10 0 15 11 15 35
0 24 -5 35 -15 35 -12 0 -15 14 -15 70 0 56 3 70 15 70 13 0 15 21 15 130 0
109 -2 130 -15 130 -13 0 -15 42 -15 320 0 278 2 320 15 320 8 0 15 9 15 20 0
11 -7 20 -15 20 -8 0 -15 7 -15 15 0 8 7 15 15 15 13 0 15 20 15 120 0 100 -2
120 -15 120 -8 0 -15 7 -15 15 0 8 -9 15 -20 15 -11 0 -20 7 -20 15 0 8 -7 15
-15 15 -8 0 -15 9 -15 20 0 20 -7 20 -520 20 -456 0 -520 2 -520 15 0 13 -52
15 -405 15 -353 0 -405 -2 -405 -15 0 -10 -11 -15 -35 -15 -24 0 -35 5 -35 15
0 8 -7 15 -15 15 -10 0 -15 -11 -15 -35z m140 -15 c0 -13 -7 -20 -20 -20 -13
0 -20 7 -20 20 0 13 7 20 20 20 13 0 20 -7 20 -20z m230 -65 c0 -12 14 -15 65
-15 58 0 65 -2 65 -20 0 -18 7 -20 70 -20 56 0 70 -3 70 -15 0 -10 11 -15 35
-15 28 0 35 -4 35 -20 0 -19 7 -20 250 -20 216 0 250 -2 250 -15 0 -10 11 -15
35 -15 24 0 35 -5 35 -15 0 -11 12 -15 50 -15 43 0 50 -3 50 -20 0 -16 7 -20
35 -20 24 0 35 -5 35 -15 0 -8 7 -15 15 -15 8 0 15 -7 15 -15 0 -10 11 -15 35
-15 28 0 35 -4 35 -20 0 -16 7 -20 30 -20 20 0 30 -5 30 -15 0 -8 9 -15 20
-15 11 0 20 -7 20 -15 0 -8 7 -15 15 -15 8 0 15 -9 15 -20 0 -11 7 -20 15 -20
8 0 15 -7 15 -15 0 -8 9 -15 20 -15 17 0 20 -7 20 -50 0 -43 -3 -50 -20 -50
-17 0 -20 7 -20 50 0 38 -4 50 -15 50 -8 0 -15 7 -15 15 0 8 -7 15 -15 15 -8
0 -15 9 -15 20 0 16 -7 20 -35 20 -24 0 -35 5 -35 15 0 8 -7 15 -15 15 -8 0
-15 7 -15 15 0 10 -11 15 -35 15 -28 0 -35 4 -35 20 0 11 -7 20 -15 20 -8 0
-15 7 -15 15 0 10 -11 15 -35 15 -24 0 -35 5 -35 15 0 12 -14 15 -70 15 -63 0
-70 2 -70 20 0 11 -7 20 -15 20 -8 0 -15 7 -15 15 0 13 -37 15 -270 15 -233 0
-270 2 -270 15 0 11 -12 15 -50 15 -43 0 -50 3 -50 20 0 17 -7 20 -50 20 -38
0 -50 4 -50 15 0 12 -14 15 -65 15 -58 0 -65 2 -65 20 0 13 -7 20 -20 20 -11
0 -20 7 -20 15 0 10 11 15 35 15 24 0 35 -5 35 -15z m-130 -35 c0 -11 7 -20
15 -20 8 0 15 -7 15 -15 0 -8 7 -15 15 -15 8 0 15 -9 15 -20 0 -18 7 -20 70
-20 56 0 70 -3 70 -15 0 -11 12 -15 50 -15 38 0 50 -4 50 -15 0 -11 12 -15 50
-15 43 0 50 -3 50 -20 0 -19 7 -20 250 -20 216 0 250 -2 250 -15 0 -11 12 -15
50 -15 38 0 50 -4 50 -15 0 -11 12 -15 50 -15 43 0 50 -3 50 -20 0 -16 7 -20
35 -20 24 0 35 -5 35 -15 0 -8 9 -15 20 -15 11 0 20 -7 20 -15 0 -10 10 -15
30 -15 23 0 30 -4 30 -20 0 -16 7 -20 35 -20 24 0 35 -5 35 -15 0 -8 7 -15 15
-15 8 0 15 -7 15 -15 0 -8 9 -15 20 -15 18 0 20 -7 20 -55 0 -42 3 -55 15 -55
10 0 15 -10 15 -30 0 -20 5 -30 15 -30 12 0 15 -14 15 -70 0 -63 2 -70 20 -70
19 0 20 -7 20 -135 0 -128 -1 -135 -20 -135 -17 0 -20 -7 -20 -50 0 -38 -4
-50 -15 -50 -11 0 -15 -12 -15 -50 0 -38 -4 -50 -15 -50 -10 0 -15 -10 -15
-30 0 -23 -4 -30 -20 -30 -13 0 -20 -7 -20 -20 0 -11 -7 -20 -15 -20 -8 0 -15
-7 -15 -15 0 -8 -7 -15 -15 -15 -8 0 -15 -9 -15 -20 0 -13 -7 -20 -20 -20 -11
0 -20 -7 -20 -15 0 -8 -7 -15 -15 -15 -8 0 -15 -7 -15 -15 0 -10 -11 -15 -35
-15 -28 0 -35 -4 -35 -20 0 -16 -7 -20 -35 -20 -24 0 -35 -5 -35 -15 0 -11
-12 -15 -50 -15 -38 0 -50 -4 -50 -15 0 -13 -27 -15 -185 -15 -178 0 -185 -1
-185 -20 0 -19 -7 -20 -100 -20 -93 0 -100 1 -100 20 0 18 -7 20 -65 20 -51 0
-65 3 -65 15 0 11 -12 15 -50 15 -38 0 -50 4 -50 15 0 10 -11 15 -35 15 l-35
0 0 -65 c0 -51 3 -65 15 -65 8 0 15 -7 15 -15 0 -8 9 -15 20 -15 13 0 20 -7
20 -20 0 -16 7 -20 30 -20 20 0 30 -5 30 -15 0 -12 13 -15 55 -15 42 0 55 -3
55 -15 0 -11 12 -15 50 -15 43 0 50 -3 50 -20 0 -19 7 -20 115 -20 108 0 115
1 115 20 0 17 7 20 50 20 38 0 50 4 50 15 0 8 9 15 20 15 16 0 20 7 20 35 0
33 -2 35 -35 35 -33 0 -35 -2 -35 -35 0 -24 -5 -35 -15 -35 -8 0 -15 7 -15 15
0 8 -9 15 -20 15 -13 0 -20 7 -20 20 0 13 7 20 20 20 11 0 20 7 20 15 0 12 14
15 65 15 l65 0 0 -65 c0 -51 -3 -65 -15 -65 -8 0 -15 -9 -15 -20 0 -17 -7 -20
-50 -20 -38 0 -50 -4 -50 -15 0 -13 -24 -15 -155 -15 -131 0 -155 2 -155 15 0
11 -12 15 -50 15 -43 0 -50 3 -50 20 0 17 -7 20 -50 20 -38 0 -50 4 -50 15 0
10 -11 15 -35 15 -24 0 -35 5 -35 15 0 8 -7 15 -15 15 -8 0 -15 9 -15 20 0 11
-7 20 -15 20 -12 0 -15 18 -15 100 0 82 3 100 15 100 8 0 15 7 15 15 0 8 7 15
15 15 10 0 15 11 15 35 0 28 4 35 20 35 19 0 20 7 20 185 l0 185 -35 0 c-28 0
-35 -4 -35 -20 0 -17 -7 -20 -50 -20 -49 0 -50 -1 -50 -30 0 -20 5 -30 15 -30
8 0 15 7 15 15 0 8 9 15 20 15 16 0 20 -7 20 -35 l0 -35 -50 0 -50 0 0 70 0
70 50 0 c38 0 50 4 50 15 0 11 12 15 50 15 l50 0 0 70 0 70 -70 0 c-63 0 -70
-2 -70 -20 0 -16 -7 -20 -30 -20 -20 0 -30 -5 -30 -15 0 -8 7 -15 15 -15 8 0
15 -9 15 -20 0 -16 -7 -20 -35 -20 l-35 0 0 55 0 55 35 0 c24 0 35 5 35 15 0
12 16 15 85 15 l85 0 0 220 c0 189 2 220 15 220 8 0 15 7 15 15 0 8 7 15 15
15 8 0 15 7 15 15 0 8 -7 15 -15 15 -8 0 -15 9 -15 20 0 16 -7 20 -35 20 -24
0 -35 5 -35 15 0 10 -10 15 -30 15 -20 0 -30 5 -30 15 0 8 -9 15 -20 15 -13 0
-20 7 -20 20 0 11 -7 20 -15 20 -8 0 -15 7 -15 15 0 10 -11 15 -35 15 -24 0
-35 5 -35 15 0 8 -7 15 -15 15 -12 0 -15 13 -15 55 l0 55 35 0 c28 0 35 -4 35
-20z m130 -705 c0 -12 -14 -15 -65 -15 -58 0 -65 -2 -65 -20 0 -16 -7 -20 -35
-20 -28 0 -35 4 -35 20 0 16 7 20 35 20 24 0 35 5 35 15 0 12 14 15 65 15 51
0 65 -3 65 -15z m-400 -335 c0 -213 -1 -220 -20 -220 -19 0 -20 7 -20 220 0
213 1 220 20 220 19 0 20 -7 20 -220z m0 -795 c0 -28 -4 -35 -20 -35 -16 0
-20 7 -20 35 0 28 4 35 20 35 16 0 20 -7 20 -35z m0 -80 c0 -10 10 -15 30 -15
23 0 30 -4 30 -20 0 -17 -7 -20 -50 -20 l-50 0 0 35 c0 28 4 35 20 35 11 0 20
-7 20 -15z m1070 -35 c0 -20 -7 -20 -485 -20 -478 0 -485 0 -485 20 0 20 7 20
485 20 478 0 485 0 485 -20z m840 0 c0 -17 -7 -20 -50 -20 -43 0 -50 3 -50 20
0 17 7 20 50 20 43 0 50 -3 50 -20z"/>
<path d="M810 1665 c0 -8 -9 -15 -20 -15 -19 0 -20 -7 -20 -205 l0 -205 70 0
c63 0 70 2 70 20 0 19 7 20 135 20 113 0 135 2 135 15 0 12 14 15 65 15 51 0
65 3 65 15 0 10 11 15 35 15 28 0 35 4 35 20 0 16 7 20 30 20 20 0 30 5 30 15
0 8 9 15 20 15 11 0 20 7 20 15 0 8 7 15 15 15 10 0 15 11 15 35 0 24 -5 35
-15 35 -8 0 -15 9 -15 20 0 16 -7 20 -35 20 -24 0 -35 5 -35 15 0 10 -11 15
-35 15 -24 0 -35 5 -35 15 0 10 -10 15 -30 15 -23 0 -30 4 -30 20 0 17 -7 20
-50 20 -38 0 -50 4 -50 15 0 13 -27 15 -185 15 -158 0 -185 -2 -185 -15z"/>
<path d="M1510 1395 c0 -8 -7 -15 -15 -15 -8 0 -15 -9 -15 -20 0 -16 -7 -20
-35 -20 -24 0 -35 -5 -35 -15 0 -10 -11 -15 -35 -15 -24 0 -35 -5 -35 -15 0
-12 -14 -15 -65 -15 -58 0 -65 -2 -65 -20 0 -19 -7 -20 -135 -20 -113 0 -135
-2 -135 -15 0 -12 -16 -15 -85 -15 l-85 0 0 -85 0 -85 85 0 c69 0 85 3 85 15
0 12 16 15 85 15 78 0 85 2 85 20 0 18 7 20 65 20 51 0 65 3 65 15 0 11 12 15
50 15 43 0 50 3 50 20 0 17 7 20 50 20 38 0 50 4 50 15 0 10 11 15 35 15 24 0
35 5 35 15 0 10 11 15 35 15 28 0 35 4 35 20 0 11 7 20 15 20 10 0 15 10 15
30 0 20 -5 30 -15 30 -10 0 -15 11 -15 35 0 33 -2 35 -35 35 -24 0 -35 -5 -35
-15z"/>
<path d="M1610 1225 c0 -10 -10 -15 -30 -15 -20 0 -30 -5 -30 -15 0 -12 -13
-15 -55 -15 -48 0 -55 -2 -55 -20 0 -16 -7 -20 -30 -20 -20 0 -30 -5 -30 -15
0 -12 -14 -15 -70 -15 -63 0 -70 -2 -70 -20 0 -17 -7 -20 -50 -20 -38 0 -50
-4 -50 -15 0 -12 -16 -15 -85 -15 -69 0 -85 -3 -85 -15 0 -12 -18 -15 -100
-15 l-100 0 0 -120 c0 -100 -2 -120 -15 -120 -11 0 -15 -12 -15 -50 0 -38 -4
-50 -15 -50 -8 0 -15 -7 -15 -15 0 -8 7 -15 15 -15 8 0 15 -9 15 -20 0 -17 7
-20 50 -20 38 0 50 -4 50 -15 0 -12 18 -15 100 -15 82 0 100 3 100 15 0 12 16
15 85 15 78 0 85 2 85 20 0 17 7 20 50 20 38 0 50 4 50 15 0 10 11 15 35 15
28 0 35 4 35 20 0 16 7 20 30 20 20 0 30 5 30 15 0 8 9 15 20 15 11 0 20 7 20
15 0 8 7 15 15 15 8 0 15 9 15 20 0 13 7 20 20 20 11 0 20 7 20 15 0 8 7 15
15 15 11 0 15 12 15 50 0 38 4 50 15 50 11 0 15 12 15 50 0 43 3 50 20 50 19
0 20 7 20 100 0 93 -1 100 -20 100 -11 0 -20 -7 -20 -15z"/>
<path d="M2080 2135 c0 -8 9 -15 20 -15 11 0 20 7 20 15 0 8 -9 15 -20 15 -11
0 -20 -7 -20 -15z"/>
</g>
</svg>
