<?xml version="1.0" encoding="UTF-8" standalone="no"?>
<!DOCTYPE svg PUBLIC "-//W3C//DTD SVG 1.1//EN" "http://www.w3.org/Graphics/SVG/1.1/DTD/svg11.dtd">
<svg width="100%" height="100%" viewBox="0 0 243 96" version="1.1" xmlns="http://www.w3.org/2000/svg" xmlns:xlink="http://www.w3.org/1999/xlink" xml:space="preserve" xmlns:serif="http://www.serif.com/" style="fill-rule:evenodd;clip-rule:evenodd;stroke-linecap:round;stroke-linejoin:round;">
    <g transform="matrix(1,0,0,1,-44.8693,-31.397)">
        <g transform="matrix(0.970296,0.241922,-0.241922,0.970296,64.643,30.3826)">
            <g id="Path_3" transform="matrix(1,0,0,1,4.774,4.774)">
                <path d="M31.03,38.191C31.03,33.415 38.778,30.15 42.965,23.87C47.738,16.708 47.738,0 47.738,0L0,0C0,0 0,16.708 4.774,23.869C8.961,30.149 16.709,33.414 16.709,38.19C16.709,42.966 8.96,46.232 4.774,52.512C0,59.673 0,76.381 0,76.381L47.738,76.381C47.738,76.381 47.738,59.673 42.964,52.512C38.778,46.232 31.03,42.967 31.03,38.191Z" style="fill:rgb(255,232,182);fill-rule:nonzero;"/>
            </g>
        </g>
        <g transform="matrix(0.970296,0.241922,-0.241922,0.970296,64.643,30.3826)">
            <g id="Path_4" transform="matrix(1,0,0,1,9.548,26.256)">
                <path d="M26.254,31.03C23.676,30.866 21.58,28.828 21.344,26.256C21.482,22.167 21.482,19.463 21.482,16.708C21.482,9.022 28.724,5.821 33.182,0L5.013,0C9.465,5.822 16.713,9.023 16.713,16.708C16.713,19.465 16.713,22.172 16.851,26.256C16.615,28.829 14.518,30.867 11.939,31.03C7.165,31.03 3.358,35.288 2.391,38.191C0,45.351 0,54.9 0,54.9L38.191,54.9C38.191,54.9 38.191,45.352 35.804,38.192C34.837,35.288 31.027,31.03 26.254,31.03Z" style="fill:rgb(255,172,51);fill-rule:nonzero;"/>
            </g>
        </g>
        <g transform="matrix(0.970296,0.241922,-0.241922,0.970296,64.643,30.3826)">
            <path id="Path_5" d="M57.286,81.155C57.285,83.774 55.131,85.928 52.512,85.929L4.774,85.929C2.155,85.929 -0,83.774 -0,81.155C-0,78.536 2.155,76.381 4.774,76.381L52.512,76.381C55.131,76.382 57.285,78.536 57.286,81.155ZM57.286,4.774C57.285,7.393 55.131,9.547 52.512,9.548L4.774,9.548C2.155,9.548 -0,7.393 -0,4.774C-0,2.155 2.155,0 4.774,0L52.512,0C55.131,0.001 57.285,2.155 57.286,4.774Z" style="fill:rgb(59,136,195);fill-rule:nonzero;"/>
        </g>
        <g transform="matrix(1.05134,0.262128,-0.262128,1.05134,137.391,5.25775)">
            <g id="Path_6" transform="matrix(0.970296,-0.241922,0.241922,0.970296,79.242,5.10553)">
                <path d="M31.608,0C20.771,0.006 11.206,7.32 8.361,17.777L17.661,20.314C19.367,14.035 25.111,9.643 31.618,9.643C39.552,9.643 46.081,16.172 46.081,24.106C46.081,24.109 46.081,24.111 46.081,24.114L46.081,48.234L55.728,48.234L55.728,24.117C55.727,10.887 44.84,-0 31.61,-0C31.609,-0 31.609,-0 31.608,0Z" style="fill:rgb(170,184,194);fill-rule:nonzero;"/>
            </g>
        </g>
        <g transform="matrix(1.05134,0.262128,-0.262128,1.05134,137.391,5.25775)">
            <g id="Path_7" transform="matrix(0.970296,-0.241922,0.241922,0.970296,80.1025,28.1705)">
                <path d="M67.7,54.588C67.7,59.88 63.345,64.235 58.053,64.235L14.647,64.235C9.355,64.235 5,59.88 5,54.588L5,25.647C5,20.355 9.355,16 14.647,16L58.058,16C63.348,16.003 67.7,20.357 67.7,25.647L67.7,54.588Z" style="fill:rgb(255,172,51);fill-rule:nonzero;"/>
            </g>
        </g>
        <g transform="matrix(0.970296,0.241922,-0.241922,0.970296,98.966,76.4851)">
            <g transform="matrix(2.99355,-0.746375,0.746375,2.99355,17.3762,-39.8961)">
                <path d="M5,12L19,12" style="fill:none;fill-rule:nonzero;stroke:white;stroke-width:2px;"/>
            </g>
        </g>
        <g transform="matrix(0.970296,0.241922,-0.241922,0.970296,98.966,76.4851)">
            <g transform="matrix(2.99355,-0.746375,0.746375,2.99355,17.3762,-39.8961)">
                <path d="M12,5L19,12L12,19" style="fill:none;fill-rule:nonzero;stroke:white;stroke-width:2px;"/>
            </g>
        </g>
    </g>
</svg>
